<svg width="17" height="17" viewBox="0 0 17 17" fill="none" xmlns="http://www.w3.org/2000/svg">
<path d="M3.70398 2.63889H15.75L14.1111 8.375H4.58647M14.9306 11.6528H5.09722L3.45833 1H1M5.91667 14.9306C5.91667 15.3831 5.54978 15.75 5.09722 15.75C4.64466 15.75 4.27778 15.3831 4.27778 14.9306C4.27778 14.478 4.64466 14.1111 5.09722 14.1111C5.54978 14.1111 5.91667 14.478 5.91667 14.9306ZM14.9306 14.9306C14.9306 15.3831 14.5637 15.75 14.1111 15.75C13.6585 15.75 13.2917 15.3831 13.2917 14.9306C13.2917 14.478 13.6585 14.1111 14.1111 14.1111C14.5637 14.1111 14.9306 14.478 14.9306 14.9306Z" stroke="#FFFFFF" stroke-width="1.42933" stroke-linecap="round" stroke-linejoin="round"/>
</svg>
