<svg width="16" height="16" viewBox="0 0 16 16" fill="none" xmlns="http://www.w3.org/2000/svg">
<path d="M14.2381 10.7708C13.7365 10.7708 13.1429 10.2401 13.1429 9.79167V4.89583C13.1429 2.19652 10.686 0 7.66669 0C4.64738 0 2.19048 2.19652 2.19048 4.89583V9.79167C2.19048 10.2306 1.58618 10.7708 1.09524 10.7708C0.489847 10.7708 0 11.2088 0 11.75C0 12.2912 0.489847 12.7292 1.09524 12.7292H14.2381C14.8435 12.7292 15.3334 12.2912 15.3334 11.75C15.3334 11.2088 14.8435 10.7708 14.2381 10.7708Z" fill="white"/>
<path d="M7.66668 15.6667C8.87637 15.6667 9.85716 14.7898 9.85716 13.7083H5.4762C5.4762 14.7898 6.45698 15.6667 7.66668 15.6667Z" fill="white"/>
</svg>
